<?xml version="1.0"?>
<svg xmlns="http://www.w3.org/2000/svg" xmlns:xlink="http://www.w3.org/1999/xlink" xmlns:svgjs="http://svgjs.com/svgjs" version="1.1" width="512" height="512" x="0" y="0" viewBox="0 0 512 512" style="enable-background:new 0 0 512 512" xml:space="preserve" class=""><g><path xmlns="http://www.w3.org/2000/svg" d="m256 181c-41.351562 0-75 33.648438-75 75s33.648438 75 75 75 75-33.648438 75-75-33.648438-75-75-75zm15 90h-30v-30h30zm0 0" fill="#938787" data-original="#000000" style="" class=""/><path xmlns="http://www.w3.org/2000/svg" d="m418.355469 196.222656c40.355469-26.445312 65.761719-55.113281 58.480469-67.722656-8.285157-14.351562-55.710938-2.476562-105.933594 26.519531-15.335938 8.855469-28.644532 18.234375-40.140625 27.441407 5.535156 5.628906 10.222656 12 14.386719 18.75 18.179687-3.339844 38.890624-5.210938 60.851562-5.210938 3.34375 0 7.621094.070312 12.355469.222656zm0 0" fill="#938787" data-original="#000000" style="" class=""/><path xmlns="http://www.w3.org/2000/svg" d="m283.851562 155.226562c7.679688 2.132813 14.941407 5.109376 21.8125 8.839844 14.109376-12.011718 31.171876-24.019531 50.238282-35.023437 3.554687-2.054688 7.019531-3.613281 10.554687-5.511719 21.90625-43.277344 29.699219-81.058594 17.042969-88.367188-14.347656-8.285156-49.484375 25.710938-78.480469 75.933594-8.917969 15.445313-15.804687 30.332032-21.167969 44.128906zm0 0" fill="#938787" data-original="#000000" style="" class=""/><path xmlns="http://www.w3.org/2000/svg" d="m279.027344 96.097656c1.78125-3.085937 3.992187-6.761718 6.378906-10.625-2.726562-48.152344-14.84375-85.472656-29.40625-85.472656-16.570312 0-30 48.011719-30 106 0 17.808594 1.476562 34.121094 3.722656 48.738281 7.535156-1.960937 15.308594-3.222656 23.394532-3.449219 8.347656-23.164062 19.613281-44.285156 25.910156-55.191406zm0 0" fill="#938787" data-original="#000000" style="" class=""/><path xmlns="http://www.w3.org/2000/svg" d="m128.5 35.164062c-14.347656 8.285157-2.476562 55.710938 26.519531 105.933594 8.855469 15.335938 18.234375 28.644532 27.441407 40.140625 5.625-5.535156 11.992187-10.214843 18.742187-14.382812-3.335937-18.1875-5.203125-38.902344-5.203125-60.855469 0-3.34375.070312-7.621094.222656-12.355469-26.445312-40.355469-55.113281-65.761719-67.722656-58.480469zm0 0" fill="#938787" data-original="#000000" style="" class=""/><path xmlns="http://www.w3.org/2000/svg" d="m111.097656 206.980469c15.441406 8.917969 30.328125 15.804687 44.128906 21.167969 2.132813-7.683594 5.113282-14.945313 8.84375-21.816407-12.015624-14.105469-24.023437-31.167969-35.027343-50.234375-1.675781-2.894531-3.753907-6.636718-5.992188-10.8125-43.078125-21.726562-80.605469-29.398437-87.886719-16.785156-8.285156 14.347656 25.710938 49.484375 75.933594 78.480469zm0 0" fill="#938787" data-original="#000000" style="" class=""/><path xmlns="http://www.w3.org/2000/svg" d="m106 286c17.8125 0 34.121094-1.476562 48.738281-3.726562-1.964843-7.546876-3.230469-15.332032-3.453125-23.433594-17.382812-6.203125-36.214844-14.914063-55.1875-25.867188-2.898437-1.675781-6.570312-3.878906-10.597656-6.378906-48.167969 2.722656-85.5 14.84375-85.5 29.40625 0 16.566406 48.011719 30 106 30zm0 0" fill="#938787" data-original="#000000" style="" class=""/><path xmlns="http://www.w3.org/2000/svg" d="m93.644531 315.777344c-40.355469 26.445312-65.761719 55.109375-58.480469 67.722656 8.285157 14.347656 55.710938 2.476562 105.933594-26.519531 15.335938-8.855469 28.644532-18.234375 40.140625-27.441407-5.539062-5.628906-10.222656-12-14.386719-18.753906-18.183593 3.339844-38.894531 5.214844-60.851562 5.214844-3.34375 0-7.621094-.070312-12.355469-.222656zm0 0" fill="#938787" data-original="#000000" style="" class=""/><path xmlns="http://www.w3.org/2000/svg" d="m156.097656 382.957031c-3.554687 2.054688-7.019531 3.613281-10.554687 5.511719-21.90625 43.277344-29.699219 81.058594-17.042969 88.367188 14.347656 8.285156 49.484375-25.710938 78.480469-75.933594 8.917969-15.445313 15.804687-30.332032 21.167969-44.128906-7.683594-2.132813-14.941407-5.113282-21.816407-8.84375-14.109375 12.015624-31.171875 24.027343-50.234375 35.027343zm0 0" fill="#938787" data-original="#000000" style="" class=""/><path xmlns="http://www.w3.org/2000/svg" d="m282.277344 357.261719c-7.550782 1.96875-15.34375 3.230469-23.453125 3.453125-6.199219 17.382812-14.90625 36.210937-25.851563 55.1875-1.78125 3.085937-3.992187 6.765625-6.378906 10.625 2.726562 48.152344 14.84375 85.472656 29.40625 85.472656 16.570312 0 30-48.011719 30-106 0-17.8125-1.476562-34.117188-3.722656-48.738281zm0 0" fill="#938787" data-original="#000000" style="" class=""/><path xmlns="http://www.w3.org/2000/svg" d="m329.539062 330.761719c-5.625 5.535156-12 10.21875-18.75 14.386719 3.339844 18.179687 5.210938 38.894531 5.210938 60.851562 0 3.34375-.070312 7.621094-.222656 12.355469 26.445312 40.355469 55.113281 65.761719 67.722656 58.480469 14.347656-8.285157 2.476562-55.710938-26.519531-105.933594-8.855469-15.335938-18.230469-28.644532-27.441407-40.140625zm0 0" fill="#938787" data-original="#000000" style="" class=""/><path xmlns="http://www.w3.org/2000/svg" d="m400.902344 305.019531c-15.445313-8.917969-30.332032-15.804687-44.128906-21.167969-2.132813 7.679688-5.109376 14.9375-8.839844 21.808594 12.015625 14.109375 24.03125 31.171875 35.039062 50.242188 1.671875 2.898437 3.753906 6.644531 5.992188 10.824218 43.070312 21.714844 80.589844 29.382813 87.871094 16.773438 8.285156-14.351562-25.710938-49.484375-75.933594-78.480469zm0 0" fill="#938787" data-original="#000000" style="" class=""/><path xmlns="http://www.w3.org/2000/svg" d="m406 226c-17.8125 0-34.117188 1.476562-48.738281 3.726562 1.964843 7.546876 3.230469 15.335938 3.453125 23.4375 17.382812 6.199219 36.214844 14.914063 55.1875 25.863282 2.898437 1.675781 6.570312 3.878906 10.597656 6.378906 48.167969-2.722656 85.5-14.84375 85.5-29.40625 0-16.570312-48.011719-30-106-30zm0 0" fill="#938787" data-original="#000000" style="" class=""/></g></svg>
